<svg xmlns="http://www.w3.org/2000/svg" viewBox="0 0 32 32"><defs><style>.b4a10eaf-8ca7-4108-b43f-0b0ad14486d7{fill:#12263a;}.aed47414-f4d6-4650-96b5-930e326301ee{fill:none;stroke:#12263a;stroke-miterlimit:10;stroke-width:2px;}</style></defs><g id="a3291f71-60df-4d0e-9bd6-d976a2fcb7ba" data-name="Layer 2"><g id="bc704fe4-d065-410c-bb56-87c9dfabc131" data-name="Layer 1"><path class="b4a10eaf-8ca7-4108-b43f-0b0ad14486d7" d="M28,2a2,2,0,0,1,2,2V28a2,2,0,0,1-2,2H4a2,2,0,0,1-2-2V4A2,2,0,0,1,4,2H28m0-2H4A4,4,0,0,0,0,4V28a4,4,0,0,0,4,4H28a4,4,0,0,0,4-4V4a4,4,0,0,0-4-4Z"/><line class="aed47414-f4d6-4650-96b5-930e326301ee" x1="16" y1="2" x2="16" y2="30"/><line class="aed47414-f4d6-4650-96b5-930e326301ee" x1="2" y1="16" x2="30" y2="16"/><line class="aed47414-f4d6-4650-96b5-930e326301ee" x1="2" y1="9" x2="30" y2="9"/><line class="aed47414-f4d6-4650-96b5-930e326301ee" x1="2" y1="23" x2="30" y2="23"/><line class="aed47414-f4d6-4650-96b5-930e326301ee" x1="9" y1="30" x2="9" y2="2"/><line class="aed47414-f4d6-4650-96b5-930e326301ee" x1="23" y1="30" x2="23" y2="2"/></g></g></svg>