<svg xmlns="http://www.w3.org/2000/svg" viewBox="0 0 32 32"><defs><style>.abc7a0d5-a589-423e-8fc1-8ca856663353{fill:#12263a;}.b18ab442-a077-478a-b388-f0452c96583e{fill:none;stroke:#12263a;stroke-miterlimit:10;stroke-width:2px;}</style></defs><g id="b8be38e2-00ef-43f3-bad7-005a90446ea2" data-name="Layer 2"><g id="b3140a88-e2a7-47d2-9c23-e00dcc2f0979" data-name="Layer 1"><path class="abc7a0d5-a589-423e-8fc1-8ca856663353" d="M28,2a2,2,0,0,1,2,2V28a2,2,0,0,1-2,2H4a2,2,0,0,1-2-2V4A2,2,0,0,1,4,2H28m0-2H4A4,4,0,0,0,0,4V28a4,4,0,0,0,4,4H28a4,4,0,0,0,4-4V4a4,4,0,0,0-4-4Z"/><line class="b18ab442-a077-478a-b388-f0452c96583e" x1="16" y1="2" x2="16" y2="30"/><line class="b18ab442-a077-478a-b388-f0452c96583e" x1="2" y1="16" x2="30" y2="16"/></g></g></svg>